<?xml version="1.0" encoding="UTF-8"?>
<svg id="Layer_2" data-name="Layer 2" xmlns="http://www.w3.org/2000/svg" viewBox="0 0 18 18">
  <defs>
    <style>
      .cls-1 {
        fill: #0288d1;
      }

      .cls-2 {
        fill: none;
      }
    </style>
  </defs>
  <g id="Layer_4" data-name="Layer 4">
    <g id="h1">
      <path class="cls-1" d="m8.14,4.03c1,0,1.95.13,2.83.39.89.26,1.66.62,2.33,1.07.67.45,1.21.99,1.61,1.6.41.61.64,1.26.69,1.96h1.4v.52h-1.4c-.05.69-.28,1.34-.69,1.95-.41.61-.95,1.13-1.62,1.58-.67.45-1.45.8-2.33,1.06-.88.26-1.82.39-2.82.39h-.28l-.07-.6c-.65-.03-1.26-.12-1.84-.28-.58-.16-1.11-.37-1.6-.64l.52-.78c.45.23.95.4,1.48.52.54.12,1.1.18,1.69.18.75,0,1.46-.1,2.12-.29.67-.19,1.25-.46,1.74-.8.49-.34.88-.74,1.17-1.2s.43-.95.43-1.47-.14-1-.43-1.46c-.29-.45-.68-.85-1.17-1.19s-1.07-.61-1.74-.81c-.67-.2-1.38-.3-2.12-.3s-1.47.1-2.12.3c-.66.2-1.24.47-1.73.81-.5.34-.89.74-1.17,1.19-.29.45-.43.94-.43,1.46v.18c0,.05,0,.11.01.18h-1.22l-.37-1.18h.91c.1-.4.26-.78.49-1.13.23-.35.5-.68.83-.98.33-.3.7-.57,1.12-.8.42-.23.87-.42,1.36-.57l-.07-.56c.39-.09.8-.17,1.21-.22s.84-.08,1.28-.08Zm1.25,5.11h.86v.38h-.86c-.06.21-.2.39-.43.53-.23.14-.5.21-.81.21-.34,0-.64-.09-.88-.27-.25-.18-.37-.4-.37-.65s.12-.47.37-.65c.25-.18.54-.27.88-.27.3,0,.57.07.8.2.23.13.37.31.44.52Z"/>
      <rect class="cls-2" width="18" height="18"/>
      <rect class="cls-2" x="2" y="2" width="14" height="14"/>
    </g>
  </g>
</svg>