<?xml version="1.0" encoding="UTF-8"?>
<svg id="Layer_2" data-name="Layer 2" xmlns="http://www.w3.org/2000/svg" xmlns:xlink="http://www.w3.org/1999/xlink" viewBox="0 0 18 18">
  <defs>
    <style>
      .cls-1 {
        fill: none;
      }

      .cls-2 {
        fill: url(#linear-gradient);
      }
    </style>
    <linearGradient id="linear-gradient" x1="8.7" y1="4" x2="8.7" y2="14.06" gradientUnits="userSpaceOnUse">
      <stop offset="0" stop-color="#fff"/>
      <stop offset="1" stop-color="#71adff"/>
    </linearGradient>
  </defs>
  <g id="Layer_4" data-name="Layer 4">
    <g id="h2">
      <path class="cls-2" d="m3.24,6.81h1.07c.25-.32.49-.59.73-.81.24-.21.49-.39.75-.52l-.28-.52c.88-.42,1.78-.71,2.7-.84.92-.14,1.8-.15,2.61-.03.82.12,1.55.35,2.18.68.64.34,1.12.77,1.44,1.28.32.52.44,1.12.37,1.79-.08.67-.41,1.41-1.01,2.19h-2.18l-5.1,2.75h2.49l1.07-.49h4.37c.27-.01.46-.11.57-.29.11-.18.17-.4.17-.67h.51v2.1h-.86l-.65.62H3.24l-.19-.45h-1.35v-.62h1.28l3.96-2.32.39.71,3.51-1.89c.49-.26.85-.57,1.09-.92.23-.35.37-.7.41-1.05.04-.35-.02-.67-.19-.97s-.41-.51-.73-.64c-.37-.16-.85-.28-1.42-.35-.57-.07-1.16-.06-1.76.02-.6.08-1.18.25-1.75.51-.56.26-1.02.63-1.37,1.11v.66h-1.37l-.51-1.05Z"/>
      <rect class="cls-1" width="18" height="18"/>
      <rect class="cls-1" x="2" y="2" width="14" height="14"/>
    </g>
  </g>
</svg>