<?xml version="1.0" encoding="UTF-8"?>
<svg id="Layer_2" data-name="Layer 2" xmlns="http://www.w3.org/2000/svg" viewBox="0 0 18 18">
  <defs>
    <style>
      .cls-1 {
        fill: #0288d1;
      }

      .cls-2 {
        fill: none;
      }
    </style>
  </defs>
  <g id="Layer_4" data-name="Layer 4">
    <g id="h3">
      <path class="cls-1" d="m14.63,5.24h-.05c-.3,0-.59.02-.86.07-.27.05-.57.21-.88.49l-1.58,1.88c.96.03,1.75.16,2.38.4.63.24,1.14.53,1.51.88.38.34.64.72.79,1.12.15.41.22.79.21,1.15-.01.32-.13.66-.37,1.02-.23.36-.58.72-1.04,1.05-.46.34-1.02.64-1.68.91s-1.42.46-2.28.58c-.85.12-1.8.14-2.85.07s-2.17-.28-3.38-.64l-.14-.5c-.62-.28-1.21-.6-1.77-.96-.56-.36-1.11-.79-1.65-1.27l.59-.8c.76.63,1.57,1.13,2.42,1.49.85.36,1.69.61,2.53.75.84.14,1.64.2,2.42.18s1.48-.11,2.1-.25c.63-.14,1.16-.31,1.59-.52.44-.21.73-.41.87-.62.15-.25.24-.55.27-.91.02-.36-.12-.7-.43-1.03-.31-.33-.84-.61-1.58-.83-.74-.22-1.8-.32-3.17-.31v-.68h.45l1.81-2.13h-5.32c-.27,0-.51.07-.7.2-.19.13-.29.33-.29.59h-.47v-1.8h.97l.59-.83h6.86v.52h2.11v.72Z"/>
      <rect class="cls-2" width="18" height="18"/>
      <rect class="cls-2" x="2" y="2" width="14" height="14"/>
    </g>
  </g>
</svg>