<?xml version="1.0" encoding="UTF-8"?>
<svg id="Layer_2" data-name="Layer 2" xmlns="http://www.w3.org/2000/svg" viewBox="0 0 18 18">
  <defs>
    <style>
      .cls-1 {
        fill: #8bc34a;
      }

      .cls-2 {
        fill: none;
      }
    </style>
  </defs>
  <g id="Layer_4" data-name="Layer 4">
    <g id="h3o">
      <rect class="cls-2" width="18" height="18"/>
      <rect class="cls-2" x="2" y="2" width="14" height="14"/>
      <path class="cls-1" d="m14,2H4c-1.1,0-2,.9-2,2v10c0,1.1.9,2,2,2h10c1.1,0,2-.9,2-2V4c0-1.1-.9-2-2-2Zm-5,13c-3.31,0-6-2.69-6-6s2.69-6,6-6,6,2.69,6,6-2.69,6-6,6Z"/>
      <path class="cls-1" d="m9,4c-2.76,0-5,2.24-5,5s2.24,5,5,5,5-2.24,5-5-2.24-5-5-5Zm-2.5,6c-.83,0-1.5-.67-1.5-1.5s.67-1.5,1.5-1.5,1.5.67,1.5,1.5-.67,1.5-1.5,1.5Zm5,0c-.83,0-1.5-.67-1.5-1.5s.67-1.5,1.5-1.5,1.5.67,1.5,1.5-.67,1.5-1.5,1.5Z"/>
    </g>
  </g>
</svg>