<?xml version="1.0" encoding="UTF-8"?>
<svg id="Layer_2" data-name="Layer 2" xmlns="http://www.w3.org/2000/svg" viewBox="0 0 18 18">
  <defs>
    <style>
      .cls-1 {
        fill: #e7e8e8;
      }

      .cls-2 {
        fill: none;
      }

      .cls-3 {
        fill: #c2d0d3;
      }
    </style>
  </defs>
  <g id="Layer_4" data-name="Layer 4">
    <g id="hr">
      <path class="cls-3" d="m7.65,6.1l1.35-2.21,1.35,2.21.65-.65-1.23-2.03c-.16-.26-.45-.43-.76-.43s-.6.16-.76.43l-1.23,2.03.65.65Z"/>
      <path class="cls-3" d="m15.98,13.65l-2.87-4.71-.65.65,2.75,4.53H2.78l2.69-4.42-.65-.65-2.8,4.61c-.17.27-.17.62-.02.9s.45.45.77.45h12.44c.32,0,.62-.17.77-.45s.15-.62-.02-.9Z"/>
      <polygon class="cls-1" points="11.22 6.18 11.22 6.97 9 9.21 6.78 6.97 6.78 6.18 9 8.41 11.22 6.18"/>
      <polygon class="cls-1" points="15.18 3.55 9 9.75 2.8 3.55 2.78 3.57 2.78 5.86 7.06 10.14 7.06 11.03 8.3 11.81 7.06 12.6 7.06 13.84 8.99 12.62 10.94 13.85 10.94 12.63 9.69 11.83 10.94 11.04 10.94 10.13 15.22 5.84 15.22 3.6 15.18 3.55"/>
      <rect class="cls-2" width="18" height="18"/>
      <rect class="cls-2" x="2" y="2" width="14" height="14"/>
    </g>
  </g>
</svg>